<svg width="381" height="290" viewBox="0 0 381 290" fill="none" xmlns="http://www.w3.org/2000/svg">
<path d="M66.0696 278.686H132.941V6.78614L5 37.3684V92.5265L66.0696 77.1357V278.684V278.686ZM262.811 285C285.918 285 305.872 279.29 322.774 267.883C339.726 256.446 352.808 240.346 362.047 219.515C371.339 198.559 376 173.725 376 145C376 116.272 371.339 91.4413 362.047 70.4871C352.81 49.6536 339.726 33.5563 322.774 22.1166C305.872 10.708 285.918 5 262.811 5C239.707 5 219.753 10.7098 202.851 22.1166C185.899 33.5545 172.817 49.6536 163.577 70.4852C154.286 91.4395 149.625 116.273 149.625 145C149.625 173.728 154.286 198.559 163.577 219.513C172.815 240.346 185.899 256.444 202.851 267.883C219.753 279.292 239.707 285 262.811 285ZM262.811 227.595C248.219 227.595 236.819 220.005 228.974 205.308C221.418 191.151 217.7 171.062 217.7 145C217.7 118.938 221.418 98.8494 228.974 84.692C236.819 69.9966 248.219 62.4055 262.811 62.4055C277.403 62.4055 288.806 69.9948 296.649 84.692C304.205 98.8494 307.924 118.938 307.924 145C307.924 171.062 304.205 191.151 296.651 205.308C288.806 220.003 277.403 227.595 262.813 227.595H262.811Z" fill="black" stroke="#595959" stroke-width="10"/>
</svg>
