<svg width="217" height="290" viewBox="0 0 217 290" fill="none" xmlns="http://www.w3.org/2000/svg">
<path d="M8.63878 285H212V228.675H95.6628L103.767 222.049L158.577 177.226C168.045 169.528 176.717 161.436 184.598 152.952C192.339 144.619 198.52 135.519 203.155 125.645C207.712 115.932 210 104.9 210 92.5131C210 74.9141 205.731 59.6093 197.206 46.5091C188.651 33.364 176.845 23.1869 161.718 15.9405C146.501 8.65307 129.182 5 109.716 5C90.2792 5 73.1196 8.77627 58.1895 16.312C43.2742 23.8384 31.2862 34.1909 22.177 47.3995C13.8177 59.5197 8.42664 73.1651 6 88.3765H69.3736C71.6737 81.8059 75.697 76.2059 81.3933 71.6325C87.9809 66.3424 96.7961 63.7477 107.72 63.7477C118.755 63.7477 127.356 66.6168 133.326 72.4856C139.246 78.3096 142.242 85.5971 142.242 94.1277C142.242 101.876 140.083 108.938 135.788 115.217C131.709 121.179 124.647 128.515 114.564 137.319L8.63878 229.868V285Z" fill="black" stroke="#595959" stroke-width="10"/>
</svg>
