<svg width="220" height="290" viewBox="0 0 220 290" fill="none" xmlns="http://www.w3.org/2000/svg">
<path d="M8.76808 78.8771H70.9852C73.4183 73.8333 77.62 69.6427 83.4762 66.3331C90.1278 62.5717 98.1307 60.7144 107.429 60.7144C117.825 60.7144 126.407 62.7864 133.113 67.0163C140.298 71.5467 143.934 78.7445 143.934 88.1376C143.934 96.6365 140.466 103.808 133.691 109.38C127.052 114.842 118.381 117.538 107.824 117.538H79.1977V170.487H110.584C121.013 170.487 129.815 172.778 136.914 177.415C144.437 182.33 148.276 189.699 148.276 199.098C148.276 209.747 144.64 217.718 137.322 222.547C130.475 227.064 121.803 229.286 111.376 229.286C101.634 229.286 92.9969 227.531 85.4975 223.992C78.5764 220.725 73.6691 216.017 70.9272 209.938H6C9.92284 232.504 20.5254 250.351 37.8694 263.66C56.3681 277.86 81.3575 285 112.954 285C132.991 285 150.713 281.672 166.144 275.038C181.463 268.452 193.422 259.197 202.094 247.254C210.693 235.408 215 221.237 215 204.625C215 191.648 211.388 179.436 204.126 167.915C196.986 156.585 186.009 148.563 171.031 143.82L160.812 140.582L170.831 136.774C183.293 132.036 192.666 124.943 199.06 115.471C205.481 105.959 208.683 95.3 208.683 83.4C208.683 67.5875 204.45 53.9477 195.981 42.3613C187.42 30.648 175.955 21.5107 161.529 14.9288C147.03 8.31333 130.983 5 113.349 5C84.1462 5 60.6222 12.1232 42.6457 26.308C25.8014 39.5968 14.5251 57.0819 8.76808 78.8771V78.8771Z" fill="black" stroke="#595959" stroke-width="10"/>
</svg>
