<svg width="223" height="290" viewBox="0 0 223 290" fill="none" xmlns="http://www.w3.org/2000/svg">
<path d="M198.628 61.3248V5H27.358L11.9155 169.933H72.3142C76.3051 165.524 81.3676 161.992 87.4646 159.34C94.1346 156.439 101.499 154.994 109.529 154.994C121.152 154.994 130.772 158.251 138.214 164.803C145.77 171.456 149.571 180.427 149.571 191.431C149.571 202.708 145.768 211.759 138.183 218.287C130.743 224.69 121.137 227.867 109.529 227.867C101.53 227.867 94.3281 226.571 87.9446 223.956C82.1583 221.589 77.5684 218.457 74.2362 214.545H7C13.1547 236.185 25.1998 253.041 43.2061 265.251C62.5929 278.399 87.0925 285 116.79 285C135.619 285 152.688 281.285 168.045 273.863C183.297 266.492 195.415 255.723 204.459 241.505C213.471 227.337 218 209.865 218 189.009C218 171.869 214.255 156.689 206.777 143.404C199.298 130.117 189.076 119.697 176.06 112.091C163.055 104.49 148.433 100.687 132.129 100.687C111.551 100.687 94.7337 107.189 81.4588 120.214L74.2176 127.319L80.3071 61.3248H198.628V61.3248Z" fill="black" stroke="#595959" stroke-width="10"/>
</svg>
