<svg width="227" height="290" viewBox="0 0 227 290" fill="none" xmlns="http://www.w3.org/2000/svg">
<path d="M149.945 72.5584H216.45C210.306 52.1277 199.683 36.0221 184.558 24.1408C168.354 11.4101 146.295 5 118.261 5C96.2073 5 76.7409 10.3387 59.7682 21.0104C42.8123 31.6728 29.4667 47.3117 19.713 68.0093C9.91991 88.8002 5 114.06 5 143.815C5 170.724 9.40734 194.857 18.2052 216.237C26.9357 237.458 39.8547 254.205 56.9921 266.555C74.0359 278.84 95.214 285 120.639 285C133.314 285.022 145.906 282.955 157.906 278.881C169.794 274.874 180.822 268.673 190.415 260.602C200.057 252.52 207.729 242.608 213.451 230.835C219.142 219.125 222 205.53 222 190.015C222 173.565 218.143 158.961 210.435 146.129C202.702 133.255 192.396 123.182 179.475 115.867C166.558 108.555 152.388 104.902 136.899 104.902C109.688 104.902 89.4953 113.395 75.9721 130.345L68.4837 139.734L69.3124 127.763C70.9474 104.176 75.9721 86.9765 84.5922 76.1424C93.3658 65.116 104.955 59.529 119.052 59.529C127.021 59.529 133.692 60.8992 139.041 63.7104C143.614 66.1128 147.264 69.0621 149.945 72.5584V72.5584ZM118.373 230.867C107.476 230.867 97.9789 227.331 90.0584 220.311C82.0219 213.185 77.9569 203.992 77.9569 192.992C77.9569 182.014 82.0051 172.712 90.0041 165.332C97.9246 158.02 107.443 154.333 118.371 154.333C129.309 154.333 138.773 158.029 146.57 165.356C154.427 172.737 158.397 182.029 158.397 192.992C158.397 203.977 154.41 213.161 146.518 220.286C138.723 227.324 129.281 230.867 118.373 230.867V230.867Z" fill="black" stroke="#595959" stroke-width="10"/>
</svg>
