<svg width="226" height="290" viewBox="0 0 226 290" fill="none" xmlns="http://www.w3.org/2000/svg">
<path d="M113 285C134.29 285 153.116 281.789 169.492 275.387C185.715 269.046 198.344 259.972 207.458 248.159C216.483 236.461 221 222.258 221 205.415C221 191.739 216.753 179.151 208.203 167.54C199.661 155.941 187.849 147.645 172.663 142.62L162.52 139.262L172.547 135.575C186.141 130.576 196.16 123.1 202.723 113.142C209.353 103.084 212.647 92.276 212.647 80.6355C212.647 65.8664 208.641 52.936 200.617 41.7341C192.541 30.4557 181.078 21.5275 166.16 14.9456C151.159 8.32267 133.447 5 113 5C92.5533 5 74.8413 8.32453 59.8396 14.9456C44.9224 21.5275 33.4613 30.4557 25.3829 41.7341C17.359 52.936 13.3526 65.8664 13.3526 80.6355C13.3526 92.276 16.649 103.084 23.2774 113.142C29.84 123.1 39.8586 130.576 53.4535 135.575L63.4796 139.262L53.337 142.618C38.1513 147.645 26.3389 155.941 17.7966 167.54C9.24675 179.151 5 191.741 5 205.415C5 222.258 9.51722 236.461 18.5423 248.159C27.6556 259.972 40.285 269.047 56.5075 275.387C72.886 281.789 91.7099 285 113 285V285ZM113.939 118.867C103.421 118.867 94.5292 116.039 87.4087 110.355C80.1023 104.518 76.3739 96.8083 76.3739 87.5253C76.3739 77.7365 80.0854 69.7584 87.4087 63.912C94.5292 58.228 103.421 55.4 113.939 55.4C124.457 55.4 133.349 58.228 140.47 63.912C147.795 69.7621 151.504 77.7403 151.504 87.5291C151.504 96.812 147.776 104.521 140.47 110.355C133.349 116.039 124.457 118.867 113.939 118.867ZM113 234.6C101.251 234.6 91.2948 231.589 83.2559 225.535C74.9727 219.295 70.7391 210.946 70.7391 200.802C70.7391 190.913 74.9802 182.699 83.2559 176.465C91.2948 170.411 101.251 167.4 113 167.4C124.749 167.4 134.705 170.411 142.744 176.465C151.02 182.699 155.261 190.913 155.261 200.802C155.261 210.946 151.027 219.295 142.744 225.535C134.705 231.589 124.749 234.6 113 234.6Z" fill="black" stroke="#595959" stroke-width="10"/>
</svg>
