<svg width="227" height="290" viewBox="0 0 227 290" fill="none" xmlns="http://www.w3.org/2000/svg">
<path d="M76.198 217.441H9.62675C15.1973 237.561 26.3937 253.556 43.2876 265.553C61.519 278.5 84.6241 285 112.707 285C147.573 285 174.317 273.236 193.276 249.673C212.373 225.939 222 190.815 222 144.21C222 117.299 217.658 93.2964 208.992 72.1787C200.399 51.237 187.625 34.8299 170.637 22.8767C153.723 10.9747 132.464 5 106.758 5C93.7003 5 81.1039 7.16444 68.9494 11.4954C56.8266 15.815 45.9275 22.1608 36.2309 30.5446C26.5722 38.8956 18.9539 48.8823 13.3579 60.5317C7.79259 72.1172 5 85.3869 5 100.379C5 116.835 8.79372 131.377 16.3717 144.077C23.9753 156.82 34.1514 166.826 46.9443 174.14C59.7211 181.445 73.9519 185.097 89.7032 185.097C104.306 185.097 116.511 183.009 126.323 178.876C136.055 174.777 144.275 168.514 151.027 160.049L158.506 150.673L157.687 162.629C156.053 186.485 151.098 203.685 142.595 214.266C133.949 225.027 122.428 230.472 108.344 230.472C100.16 230.472 93.2787 229.187 87.7079 226.56C82.8077 224.249 78.9498 221.208 76.198 217.441ZM108.823 59.1333C119.796 59.1333 129.292 62.7481 137.127 69.9276C145.042 77.1807 149.043 86.4214 149.043 97.4C149.043 108.379 145.042 117.619 137.127 124.872C129.292 132.052 119.796 135.667 108.823 135.667C97.8504 135.667 88.3542 132.052 80.5198 124.872C72.6049 117.619 68.6034 108.379 68.6034 97.4C68.6034 86.4214 72.6049 77.1807 80.5198 69.9276C88.3542 62.7481 97.8504 59.1333 108.823 59.1333Z" fill="black" stroke="#595959" stroke-width="10"/>
</svg>
