<svg width="283" height="86" viewBox="0 0 283 86" fill="none" xmlns="http://www.w3.org/2000/svg">
<path d="M65.9 12.3C60.4 16 60 17.6 60 38.3C60 52.5 60.4 57.9 61.5 60.6C65.3 69.7 82.4 68.7 87.2 59C88.7 56 89 52.7 89 37.5C89 25.1 88.6 18.7 87.7 17C85.6 12.8 80.3 9.99995 74.5 9.99995C70.7 9.99995 68.4 10.6 65.9 12.3ZM77.8 19.2C79.5 20.9 79.5 55.1 77.8 56.8C76.3 58.3 72.7 58.3 71.2 56.8C70.4 56 70 50.4 70 38C70 19.5 70.3 18 74.5 18C75.7 18 77.1 18.5 77.8 19.2Z" fill="#F24C27"/>
<path d="M10 11.2C10 11.4 11.5 24.9 13.4 41.3C15.2 57.6 16.9 71.2 17.1 71.5C17.7 72 28.8 70.5 29.6 69.7C29.9 69.4 30.8 63.4 31.6 56.3C32.4 49.3 33.1 42.6 33.3 41.5C33.4 40.4 34.2 46.1 35 54.2L36.3 69H39.4C41.1 69 44.1 68.7 46.1 68.4L49.6 67.8L52.4 43.7C54 30.4 55.5 17.6 55.8 15.2L56.3 10.9L51.9 11.2L47.5 11.5L45.5 30.7C44.5 41.3 43.3 50 43 50C42.6 50 41.5 41.2 40.5 30.5L38.6 11H33.9C28.3 11 28.9 8.99996 26.3 36.5L24.6 55.5L23.4 45C22.8 39.2 21.7 29.2 21 22.7L19.8 11H14.9C12.2 11 10 11.1 10 11.2Z" fill="#F24C27"/>
<path d="M94.5 17.4C95.9 21 98.1 26.7 99.4 30L101.9 36.1L96.9 49.1C94.2 56.3 92 62.9 92 63.7C92 64.9 92.7 65.1 95.1 64.6C96.8 64.3 98.8 64 99.5 64C100.2 64 102.2 59.5 104.1 54C106 48.5 107.8 44 108.1 44C108.5 44 110.3 48.4 112.2 53.7L115.6 63.5L119.9 63.8C122.3 64 124.6 63.8 125 63.3C125.5 62.9 123.6 56.9 120.9 50C118.3 43.1 116.1 36.8 116 36C116 35.1 118 29.4 120.5 23.2C123 17.1 125 11.8 125 11.5C125 11.2 123 11 120.6 11H116.2L112.9 19.5C111.2 24.2 109.4 28 109.1 28C108.7 28 107.1 24.3 105.4 19.7L102.5 11.5L97.3 11.2L92.1 10.9L94.5 17.4Z" fill="#F24C27"/>
<path d="M128.4 13.7C129.2 17.6 137 61.8 137 62.5C137 62.8 140.4 63 144.5 63C148.6 63 152 62.6 152 62.2C152 61.3 159.7 17.7 160.6 13.7C161.1 11.1 161 11 156.6 11C151.3 11 152 9.2 148.5 31C147 40.1 145.6 48.2 145.3 49C145 49.8 143.4 43.1 141.9 34C140.4 24.9 138.8 16 138.5 14.2C137.9 11.1 137.8 11 132.9 11C127.9 11 127.8 11 128.4 13.7Z" fill="#F24C27"/>
<path d="M165 37.5V64H170H175V52.4V40.7L181 41.3L187 41.8V38V34.1L181 33.4L175 32.7V25.9V19H182.5H190V15V11H177.5H165V37.5Z" fill="#F24C27"/>
<path d="M195 37.8999V64.7999L204.8 65.4999C210.1 65.7999 215.7 66.3999 217.3 66.5999C219.9 67.0999 220 66.9999 220 62.5999V58.0999L212 57.3999L204 56.6999V33.8999V10.9999H199.5H195V37.8999Z" fill="#F24C27"/>
<path d="M224 38.9V66.7L227.1 67.4C234.6 68.9 234 71.3 234 39.5V11H229H224V38.9Z" fill="#F24C27"/>
<path d="M239.2 12.2C239.5 12.9 241.6 19.2 244 26.1L248.4 38.6L243.5 52.6C240.9 60.2 238.5 67.1 238.2 67.7C237.9 68.6 239.2 69 242.6 69H247.5L250.8 58.4C252.7 52.5 254.5 48.1 255 48.6C255.4 49.1 257.2 54.2 258.9 60C260.6 65.7 262.4 70.7 262.8 71.1C263.2 71.4 265.4 72 267.8 72.3C271.3 72.7 272 72.5 272 71.2C272 70.2 269.7 62.8 267 54.7L262.1 39.8L266.5 27.2C268.9 20.2 271.2 13.7 271.6 12.7C272.2 11.1 271.7 10.9 267.5 11.2L262.7 11.5L259.6 20.7C257.9 25.7 256.3 30.1 256 30.4C255.6 30.7 253.9 26.4 252.1 21L248.9 11H243.8C240.2 11 238.9 11.4 239.2 12.2Z" fill="#F24C27"/>
</svg>
